<svg width="26" height="26" viewBox="0 0 26 26" fill="none" xmlns="http://www.w3.org/2000/svg">
<path fill-rule="evenodd" clip-rule="evenodd" d="M12.9998 23.2635C15.7219 23.2635 18.3324 22.1822 20.2572 20.2574C22.182 18.3326 23.2633 15.7221 23.2633 13C23.2633 10.278 22.182 7.6674 20.2572 5.74262C18.3324 3.81784 15.7219 2.73651 12.9998 2.73651C10.2778 2.73651 7.66722 3.81784 5.74244 5.74262C3.81766 7.6674 2.73633 10.278 2.73633 13C2.73633 15.7221 3.81766 18.3326 5.74244 20.2574C7.66722 22.1822 10.2778 23.2635 12.9998 23.2635ZM17.1122 5.30401C17.2537 5.5084 17.3873 5.72001 17.513 5.93884C18.0698 6.90626 18.5097 8.05134 18.8011 9.31451C19.2012 9.41923 19.5786 9.53407 19.9332 9.65901C20.4207 9.83235 20.8757 10.0273 21.2797 10.2462C20.5721 8.12735 19.0811 6.35926 17.1122 5.30401ZM21.4596 15.1407C21.0111 15.4007 20.4954 15.6293 19.9321 15.8275C19.6121 15.9409 19.2734 16.0456 18.9159 16.1417C18.631 17.6204 18.1489 18.9573 17.513 20.0612C17.3886 20.2785 17.2549 20.4903 17.1122 20.696C18.1831 20.1227 19.1227 19.3325 19.8712 18.3758C20.6198 17.4191 21.1607 16.318 21.4596 15.1407ZM8.8875 20.6949C8.74478 20.4892 8.61104 20.2774 8.48666 20.0601C7.85075 18.9551 7.36866 17.6193 7.08375 16.1406C6.72624 16.0445 6.38716 15.9398 6.06649 15.8264C5.538 15.6445 5.0274 15.4142 4.54116 15.1385C4.83991 16.3158 5.38068 17.4179 6.12901 18.3746C6.87734 19.3312 7.8168 20.1215 8.8875 20.6949ZM4.71991 10.2462C5.15337 10.0169 5.60351 9.82059 6.06649 9.65901C6.42183 9.53407 6.79955 9.41923 7.19966 9.31451C7.49108 8.05134 7.92983 6.90626 8.48666 5.93884C8.61305 5.72001 8.74666 5.5084 8.8875 5.30401C6.91856 6.35926 5.42758 8.12735 4.71991 10.2462ZM16.1794 6.70801C16.5532 7.35693 16.8727 8.11634 17.1187 8.96135C16.0808 8.78909 14.952 8.68184 13.7701 8.64826V4.45251C14.6281 4.73309 15.4731 5.48168 16.1794 6.70801ZM17.4816 10.5907C16.2575 10.3556 15.0161 10.2216 13.7701 10.1898V15.2978C15.0416 15.2648 16.3081 15.1253 17.5563 14.8807C17.6314 14.2755 17.6694 13.6486 17.6701 13C17.6701 12.1615 17.604 11.3533 17.4816 10.5907ZM12.2307 4.45251V8.64826C11.0487 8.68076 9.91991 8.78909 8.88208 8.96026C9.128 8.11634 9.44649 7.35693 9.82024 6.70693C10.5266 5.48168 11.3727 4.73201 12.2307 4.45251ZM12.2307 10.1898C10.9842 10.2219 9.7425 10.3563 8.51808 10.5918C8.29429 12.0114 8.26914 13.4552 8.44333 14.8818C9.5635 15.1093 10.8483 15.2588 12.2307 15.2988V10.1898ZM6.57999 11.1118C6.68616 11.0735 6.79522 11.0366 6.90716 11.0013C6.77092 12.1527 6.75277 13.315 6.85299 14.4701C6.75983 14.4398 6.66883 14.4087 6.57999 14.3769C5.77291 14.092 5.17491 13.7703 4.79249 13.4518C4.40683 13.13 4.32666 12.8873 4.32666 12.7443C4.32666 12.6024 4.40683 12.3598 4.79249 12.0369C5.17491 11.7184 5.77291 11.3967 6.57999 11.1118ZM9.82024 19.2931C9.36849 18.5098 8.99691 17.5641 8.738 16.5035C9.81483 16.6877 10.9935 16.8047 12.2296 16.8393V21.5486C11.3727 21.268 10.5266 20.5194 9.82024 19.2931ZM13.7701 21.5486V16.8393C14.9404 16.8096 16.1071 16.6973 17.2617 16.5035C17.0017 17.5641 16.6312 18.5098 16.1783 19.2931C15.4731 20.5194 14.6281 21.268 13.7701 21.5486ZM19.2073 13C19.2073 13.4983 19.1867 13.988 19.1456 14.469C19.2387 14.4387 19.3297 14.4076 19.4186 14.3758C20.2257 14.0909 20.8237 13.7692 21.2061 13.4507C21.5917 13.1289 21.6719 12.8863 21.6719 12.7433C21.6719 12.6013 21.5917 12.3587 21.2061 12.0358C20.8237 11.7173 20.2257 11.3956 19.4186 11.1107C19.3101 11.0721 19.201 11.0353 19.0914 11.0002C19.1687 11.6502 19.2077 12.3168 19.2084 13" fill="white"/>
</svg>
