<svg width="34" height="32" viewBox="0 0 34 32" fill="none" xmlns="http://www.w3.org/2000/svg">
<rect width="33.5" height="32" rx="16" fill="white"/>
<path d="M16.5756 13.2498C16.0407 13.2498 15.5178 13.4013 15.0731 13.6852C14.6284 13.9691 14.2817 14.3725 14.077 14.8446C13.8723 15.3166 13.8188 15.836 13.9231 16.3372C14.0275 16.8383 14.2851 17.2986 14.6633 17.6599C15.0415 18.0211 15.5234 18.2672 16.048 18.3669C16.5726 18.4665 17.1164 18.4154 17.6105 18.2199C18.1047 18.0243 18.5271 17.6932 18.8243 17.2684C19.1214 16.8436 19.28 16.3441 19.28 15.8332C19.28 15.4939 19.2101 15.158 19.0742 14.8446C18.9383 14.5311 18.7391 14.2464 18.4879 14.0065C18.2368 13.7666 17.9387 13.5763 17.6105 13.4465C17.2824 13.3167 16.9308 13.2498 16.5756 13.2498ZM27.4042 10.6978C27.3992 9.89327 27.2441 9.09609 26.9462 8.34359C26.7273 7.79282 26.3887 7.29264 25.9526 6.87607C25.5165 6.4595 24.9928 6.136 24.4163 5.92692C23.6285 5.64239 22.7939 5.49424 21.9517 5.48942C20.545 5.4165 20.1306 5.4165 16.5756 5.4165C13.0206 5.4165 12.6062 5.4165 11.1995 5.48942C10.3573 5.49424 9.52272 5.64239 8.73494 5.92692C8.15836 6.136 7.63474 6.4595 7.19864 6.87607C6.76254 7.29264 6.42388 7.79282 6.205 8.34359C5.90713 9.09609 5.75203 9.89327 5.74699 10.6978C5.67065 12.0415 5.67065 12.4373 5.67065 15.8332C5.67065 19.229 5.67065 19.6248 5.74699 20.9686C5.75956 21.7758 5.9144 22.5751 6.205 23.3332C6.42168 23.882 6.76022 24.3795 7.19735 24.7915C7.6318 25.2103 8.15647 25.5338 8.73494 25.7394C9.52272 26.024 10.3573 26.1721 11.1995 26.1769C12.6062 26.2498 13.0206 26.2498 16.5756 26.2498C20.1306 26.2498 20.545 26.2498 21.9517 26.1769C22.7939 26.1721 23.6285 26.024 24.4163 25.7394C24.9947 25.5338 25.5194 25.2103 25.9539 24.7915C26.391 24.3795 26.7295 23.882 26.9462 23.3332C27.2431 22.5768 27.3982 21.7764 27.4042 20.9686C27.4806 19.6248 27.4806 19.229 27.4806 15.8332C27.4806 12.4373 27.4806 12.0415 27.4042 10.6978ZM24.6344 19.0311C24.5999 19.674 24.4563 20.3072 24.2091 20.9061C23.9974 21.4058 23.6826 21.8597 23.2836 22.2408C22.8846 22.622 22.4094 22.9226 21.8863 23.1248C21.2535 23.3479 20.5868 23.471 19.9125 23.4894H13.2387C12.5644 23.471 11.8978 23.3479 11.2649 23.1248C10.7239 22.9332 10.2355 22.6269 9.83634 22.229C9.44095 21.8555 9.13576 21.404 8.94214 20.9061C8.70849 20.302 8.58315 19.6646 8.57137 19.0207V12.6457C8.58315 12.0018 8.70849 11.3644 8.94214 10.7603C9.14276 10.2435 9.4634 9.77698 9.87996 9.39567C10.2731 9.02053 10.7452 8.72939 11.2649 8.5415C11.8978 8.31848 12.5644 8.19534 13.2387 8.17692H19.9125C20.5868 8.19534 21.2535 8.31848 21.8863 8.5415C22.4273 8.73314 22.9157 9.03943 23.3149 9.43734C23.7103 9.81082 24.0154 10.2623 24.2091 10.7603C24.4425 11.3648 24.5715 12.0016 24.5907 12.6457V15.8332C24.5907 17.979 24.6671 18.1978 24.6344 19.0207V19.0311ZM22.8896 11.2811C22.7597 10.9446 22.555 10.639 22.2896 10.3855C22.0241 10.1319 21.7042 9.93636 21.352 9.81234C20.8683 9.65219 20.3589 9.57462 19.8471 9.58317H13.3041C12.7897 9.58797 12.2802 9.67966 11.7992 9.854C11.4524 9.9724 11.1359 10.16 10.8708 10.4042C10.6057 10.6485 10.398 10.9438 10.2616 11.2707C10.1038 11.7347 10.0265 12.2203 10.0326 12.7082V18.9582C10.044 19.4489 10.1398 19.9346 10.3162 20.3957C10.446 20.7321 10.6507 21.0377 10.9162 21.2913C11.1816 21.5449 11.5015 21.7404 11.8538 21.8644C12.3192 22.0274 12.8087 22.1188 13.3041 22.1353H19.8471C20.3615 22.1304 20.871 22.0388 21.352 21.8644C21.7042 21.7404 22.0241 21.5449 22.2896 21.2913C22.555 21.0377 22.7597 20.7321 22.8896 20.3957C23.0721 19.9362 23.1681 19.4496 23.1731 18.9582V12.7082C23.1729 12.2163 23.0767 11.7288 22.8896 11.2707V11.2811ZM16.5756 19.8123C16.0291 19.8123 15.4879 19.7093 14.9831 19.5092C14.4783 19.3091 14.0198 19.0159 13.6339 18.6462C13.2479 18.2766 12.9421 17.8379 12.7339 17.3551C12.5258 16.8724 12.4194 16.3552 12.4208 15.8332C12.4208 15.0457 12.6654 14.276 13.1236 13.6214C13.5818 12.9668 14.2331 12.4568 14.9949 12.1559C15.7567 11.855 16.5949 11.7769 17.4032 11.9312C18.2116 12.0856 18.9538 12.4656 19.536 13.0232C20.1181 13.5807 20.514 14.2907 20.6735 15.0633C20.833 15.8358 20.7489 16.6362 20.432 17.3632C20.115 18.0901 19.5794 18.7108 18.8929 19.1468C18.2064 19.5828 17.4 19.8144 16.5756 19.8123ZM20.9376 12.6353C20.6965 12.6109 20.4734 12.5021 20.3113 12.33C20.1492 12.1579 20.0594 11.9345 20.0594 11.703C20.0594 11.4714 20.1492 11.248 20.3113 11.0759C20.4734 10.9038 20.6965 10.795 20.9376 10.7707C21.1786 10.795 21.4017 10.9038 21.5639 11.0759C21.726 11.248 21.8157 11.4714 21.8157 11.703C21.8157 11.9345 21.726 12.1579 21.5639 12.33C21.4017 12.5021 21.1786 12.6109 20.9376 12.6353Z" fill="#F29316"/>
</svg>
