<svg width="34" height="32" viewBox="0 0 34 32" fill="none" xmlns="http://www.w3.org/2000/svg">
<rect width="33.5" height="32" rx="16" fill="white"/>
<path d="M24.3031 9.337C22.9214 8.70257 21.4622 8.25303 19.9631 8C19.7721 8.329 19.5601 8.775 19.4111 9.125C17.8169 8.89167 16.1972 8.89167 14.6031 9.125C14.4541 8.775 14.2301 8.329 14.0501 8C12.5494 8.24939 11.089 8.69907 9.70805 9.337C6.96105 13.391 6.21805 17.35 6.59005 21.255C8.19976 22.4366 9.99781 23.3373 11.9081 23.919C12.337 23.3396 12.7169 22.7254 13.0441 22.083C12.4171 21.849 11.8241 21.563 11.2501 21.223C11.3991 21.117 11.5471 21 11.6851 20.883C15.1451 22.465 18.8921 22.465 22.3091 20.883C22.4581 21 22.5961 21.117 22.7441 21.223C22.1711 21.563 21.5771 21.849 20.9511 22.083C21.2778 22.7254 21.6575 23.3395 22.0861 23.919C23.997 23.3391 25.7954 22.4383 27.4041 21.255C27.8611 16.735 26.6821 12.807 24.3041 9.337M13.5201 18.846C12.4801 18.846 11.6311 17.901 11.6311 16.745C11.6311 15.589 12.4591 14.643 13.5211 14.643C14.5711 14.643 15.4311 15.588 15.4091 16.745C15.4091 17.901 14.5711 18.846 13.5201 18.846ZM20.4941 18.845C19.4541 18.845 18.6041 17.9 18.6041 16.744C18.6041 15.588 19.4321 14.642 20.4941 14.642C21.5441 14.642 22.4041 15.587 22.3831 16.744C22.3831 17.9 21.5551 18.844 20.4931 18.844" fill="#F29316"/>
</svg>
