<svg width="34" height="32" viewBox="0 0 34 32" fill="none" xmlns="http://www.w3.org/2000/svg">
<rect width="33.5" height="32" rx="16" fill="white"/>
<path d="M27.7439 11.2888C27.487 10.4441 26.7302 9.77892 25.7694 9.55317C24.0277 9.14295 17.0439 9.14295 17.0439 9.14295C17.0439 9.14295 10.0601 9.14295 8.31838 9.55317C7.3575 9.77895 6.60073 10.4441 6.34387 11.2888C5.8772 12.8197 5.8772 16.014 5.8772 16.014C5.8772 16.014 5.8772 19.2082 6.34387 20.7391C6.60073 21.5838 7.3575 22.2213 8.31838 22.447C10.0601 22.8572 17.0439 22.8572 17.0439 22.8572C17.0439 22.8572 24.0277 22.8572 25.7694 22.447C26.7302 22.2213 27.487 21.5838 27.7439 20.7391C28.2105 19.2082 28.2105 16.014 28.2105 16.014C28.2105 16.014 28.2105 12.8197 27.7439 11.2888ZM14.7598 18.9141V13.1138L20.5969 16.014L14.7598 18.9141Z" fill="#F29316"/>
</svg>
