<svg width="34" height="32" viewBox="0 0 34 32" fill="none" xmlns="http://www.w3.org/2000/svg">
<rect width="33.5" height="32" rx="16" fill="white"/>
<path d="M22.6763 8.64279C21.8395 7.71365 21.3783 6.52064 21.3784 5.28564H17.595V20.0475C17.5664 20.8466 17.2197 21.6036 16.6281 22.1589C16.0364 22.7141 15.2461 23.0242 14.4237 23.0237C12.6851 23.0237 11.2403 21.6428 11.2403 19.9285C11.2403 17.8809 13.2728 16.3452 15.3665 16.9761V13.2142C11.1423 12.6666 7.44458 15.8571 7.44458 19.9285C7.44458 23.8928 10.824 26.7142 14.4115 26.7142C18.2562 26.7142 21.3784 23.6785 21.3784 19.9285V12.4404C22.9126 13.5117 24.7546 14.0864 26.6434 14.0833V10.4047C26.6434 10.4047 24.3415 10.5118 22.6763 8.64279Z" fill="#F29316"/>
</svg>
